<?xml version="1.0" encoding="UTF-8"?>
<svg version="1.1" viewBox="0 0 2048 2048" width="512" height="512" xmlns="http://www.w3.org/2000/svg">
<path transform="translate(883,155)" d="m0 0 9 1 16 6 35 16 41 18 42 19 63 28 121 54 29 13 20 9 54 24 65 29 119 53 31 14 36 16 65 29 40 18 41 18 31 14 14 7 9 8 6 12 1 407 6 2 27 14 18 11 12 8 14 10 16 12 11 9 10 9 8 7 21 21 7 8 12 14 13 17 12 16 14 21 8 13 10 17 15 29 12 28 10 28 7 24 8 36 4 25h2v101l-2 2-4 26-7 34-7 25-10 29-11 26-14 29-10 18-8 13-16 24-14 19-11 13-9 11-12 13-14 15h-2l-1 3-8 7-14 13-11 9-14 11-19 14-17 11-18 11-22 12-22 11-32 13-33 11-28 7-32 6-36 4-18 1h-26l-31-2-29-4-30-6-29-8-29-10-26-11-23-11-23-13-17-10-22-15-19-14-11-9-13-11-8-7-10-9-5-3-29 13-261 116-34 15-8 2h-8l-11-3-42-19-36-16-74-33-112-50-188-84-42-19-72-32-69-31-25-11-31-14-36-16-67-30-20-9-36-16-9-6-7-7-4-8v-928l7-12 10-8 28-13 94-42 94-42 56-25 132-59 112-50 36-16 40-18 74-33 74-33 36-16 40-18 41-18zm1 67-126 56-31 14-103 46-121 54-72 32-42 19-41 18-22 10-29 13-56 25-65 29-63 28-3 3 8 4 30 13 15 7 141 63 31 14 5-1 21-9 42-19 38-17 45-20 31-14 36-16 40-18 63-28 40-18 74-33 74-33 45-20 40-18 65-29 83-37 34-15v-3l-39-18-25-11-38-17-110-49-12-5zm305 136-74 33-45 20-40 18-29 13-94 42-36 16-40 18-90 40-42 19-65 29-121 54-96 43-1 3 12 5 35 16 36 16 35 16 23-10 69-31 27-12 40-18 74-33 36-16 40-18 38-17 27-12 40-18 36-16 40-18 41-18 42-19 36-16 40-18 101-45 23-10 3-3-39-18-36-16-40-18zm199 88-116 52-81 36-40 18-29 13-18 8-40 18-41 18-24 11-72 32-40 18-36 16-40 18-94 42-72 32-33 15 2 2 17 7 24 11 34 15 29 13 43 19 42 19 25 11 45 20 11 5 5-1 40-18 60-27 103-46 36-16 42-19 25-11 38-17 36-16 40-18 65-29 45-20 31-14 81-36 31-14 81-36 16-7v-3l-37-17-27-12-161-72-43-19zm-1325 171v842l15 7 24 11 119 53 38 17 65 29 94 42 65 29 65 29 42 19 36 16 40 18 36 16 40 18 41 18 40 18 25 11 5 2v-842l-16-8-101-45-40-18-41-18-40-18-36-16-12-5h-2l-1 326-2 9-6 10-9 6-10 3h-8l-15-5-35-16-27-12-65-29-60-27-9-5-5-4-6-10-1-4-1-359-23-11-27-12-38-17-43-19-42-19-36-16-32-14zm1643 0-35 16-25 11-29 13-36 16-40 18-41 18-33 15-108 48-42 19-20 9-30 13-24 11-72 32-42 19-41 18-40 18-41 18-33 15-36 16-19 8-2 2v842l10-4 35-16 36-16 40-18 65-29 83-37 36-16 40-18 65-29 45-20 40-18 56-25 36-16 40-18 36-16 40-18 34-15 29-13 23-10 1-1v-450l-9-4-26-8-26-6-23-4-28-3-18-1h-30l-27 2-29 4-28 6-25 7-20 7-25 10-25 12-25 14-12 8-13 9-16 12-13 11-11 10-8 7-14 14-7 8-12 14-10 13-13 18-8 13-6 10-8 14v2l9-3 46-19 34-14 7-2h13l8 3 6 4 6 7 4 10v13l-4 9-5 7-10 6-36 15-44 18-76 31-7 2h-14l-10-4-7-7-8-16-16-39-18-44-16-39-12-30-1-4v-12l4-10 7-8 9-5 3-1h14l10 4 7 6 8 15 15 37 14 34 2 5h3l10-18 12-19 11-16 11-15 13-16 14-16v-2h2l7-8 15-15 2-1v-2l4-2 13-12 10-8 17-13 17-12 24-15 26-14 25-12 33-13 25-8 27-7 31-6 30-4 29-2h37l29 2 31 4 35 7 28 8h2v-325zm-1338 136v305l15 6 15 7 40 18 63 28h1v-304l-21-10-36-16-40-18-36-16zm1402 285-1 447-3 9-5 7-11 7-38 17-27 12-40 18-54 24-23 10-15 7-31 14-139 62-72 32-25 11-1 3 8 6 12 10 18 13 15 10 17 10 10 6 19 9 15 7 29 11 30 9 34 7 30 4 30 2h24l29-2 29-4 34-7 27-8 27-10 27-12 21-11 20-12 19-13 12-9 16-13 11-10 2-1v-2l4-2 18-18 7-8 11-13 15-20 12-18 9-15 14-26 11-25 9-24 9-30 7-33 4-28 2-31v-25l-2-30-4-30-6-29-8-29-9-25-9-21-9-19-13-23-10-16-12-17-10-13-11-13-7-8-14-15-17-16-11-9-12-10-17-12-15-10-15-9z"/>
</svg>
