<?xml version="1.0" encoding="UTF-8"?>
<svg version="1.1" viewBox="0 0 1024 1024" width="256" height="256" xmlns="http://www.w3.org/2000/svg">
<path transform="translate(106,227)" d="m0 0h486l61 1 34 1 33 2 18 4 16 8 10 8 8 8 7 10 5 10 4 12 2 14 66 1 23 2 17 4 19 8 12 7 14 11 9 9 10 13 15 24 15 26 17 33 13 29 4 9v42l-2 5-12 70-6 29-8 24-10 19-9 12-5 6-13 10-13 6-11 3-12 1-1-1-3-24-5-17-9-17-8-10-1-3-3-1v-2l-4-2-10-8-16-8-15-5-12-2h-28l-16 3-18 6-19 10-12 9-12 10-1 2h-2l-2 4-8 9-10 16-7 14-5 15-3 8-4 1-199-1-1-1-1-21-4-18-5-13-8-14-8-10-7-7-13-9-17-8-16-4-7-1h-27l-20 4-16 6-17 9-16 12-12 11-9 11-9 14-6 12-7 18-3 2h-137l-10-3-8-5-8-9-4-8-1-4v-12l4-11 7-9 9-6 10-3 53-1 11-4 10-9 4-8 1-3v-16l-4-10-8-9-8-4-8-2-146-1-11-4-9-7-8-12v-24h2l1-4 7-9 8-6 8-3 28-1 123-1 8-3 9-6 6-9 2-6v-16l-7-14-7-6-10-4-44-1-12-2-9-5-5-5-6-8-3-8v-14l5-12 8-9 11-6 5-1 46-1 10-3 8-5 6-7 4-10v-16l-6-12-4-5-11-6-5-1-77-1-12-3-9-6-5-6-5-10-1-4v-11l4-12 7-9 12-7zm305 127-15 1-7 4-4 8-4 25-12 86v8l4 6 2 1h10l6-4 3-6 6-36h29l4 10 10 29 4 6 9 2 7-3 5-5 1-3v-7l-8-24-3-11 6-2 8-6 9-13 5-15 1-6v-13l-2-10-4-8-5-5-6-4-15-4-24-1zm376 0-3 17-8 62-7 58v3h174l9-4 7-8 2-5v-10l-5-12-12-22-13-23-13-20-8-10-7-7-14-9-11-5-12-3-7-1-43-1zm-492 1-7 4-4 7-9 62-7 50v8l3 5 7 3 8-2 5-5 3-9 6-39 1-2h35l7-3 5-6 1-8-3-6-3-2-5-1h-29l-5 1 2-17 2-15h49l6-3 5-6 1-7-3-6-3-3zm226 0-6 3-4 6-3 13-9 64-5 36v8l3 6 3 2 5 1h67l7-3 4-5 1-2v-7l-3-5-6-2h-54l5-35v-2h44l6-3 4-5 1-9-2-4-3-2-16-1h-31l3-16 2-14 56-1 7-4 3-4v-10l-5-5zm109 0-7 4-4 8-7 46-9 65v7l4 6 2 2 5 1h67l8-4 4-5v-9l-5-5-4-1h-54l4-26 2-10 44-1 6-4 4-6v-7l-2-4-3-2-45-1v-8l3-21 1-1 55-1 7-4 4-7-1-7-5-5z"/>
<path transform="translate(374,645)" d="m0 0h20l13 3 9 4 10 6 8 7 9 13 5 11 3 13v17l-5 19-8 16-6 9-4 5-8 7-12 9-14 7-13 4-15 2-16-1-16-5-12-7-12-12-8-14-4-13-1-6v-15l3-15 7-16 6-10 8-10 7-7 16-11 13-6z"/>
<path transform="translate(807,645)" d="m0 0h19l14 3 14 7 10 8 8 9 8 16 3 11v23l-4 15-8 16-7 10-9 10-11 9-15 8-15 5-15 2-16-1-12-3-12-6-11-9-8-10-7-14-3-12v-21l4-16 8-17 9-12 12-12 14-9 13-6 11-3z"/>
<path transform="translate(38,365)" d="m0 0h14l9 3 9 7 6 8 4 13v7l-4 13-7 9-9 6-9 3h-12l-11-4-8-6-6-8-4-13v-7l3-11 6-9 7-6 8-4z"/>
<path transform="translate(410,378)" d="m0 0h33l9 2 6 5 3 7v10l-3 8-8 9-7 3-6 1h-31l-3-1 1-14 4-28z"/>
<path transform="translate(920,704)" d="m0 0"/>
<path transform="translate(1023,525)" d="m0 0"/>
</svg>
